<?xml version="1.0" standalone="no"?>
<!DOCTYPE svg PUBLIC "-//W3C//DTD SVG 20010904//EN"
 "http://www.w3.org/TR/2001/REC-SVG-20010904/DTD/svg10.dtd">
<svg version="1.0" xmlns="http://www.w3.org/2000/svg"
 width="100.000000pt" height="100.000000pt" viewBox="0 0 100.000000 100.000000"
 preserveAspectRatio="xMidYMid meet">

<g transform="translate(0.000000,100.000000) scale(0.100000,-0.100000)"
fill="#000000" stroke="none">
<path d="M104 815 l-25 -25 3 -255 3 -255 -28 0 c-34 0 -43 -21 -27 -61 23
-54 46 -59 290 -59 l220 0 0 40 c0 33 3 40 20 40 13 0 20 7 20 20 0 19 -7 20
-218 20 -156 0 -221 3 -230 12 -17 17 -17 479 0 496 17 17 719 17 736 0 7 -7
12 -33 12 -60 0 -30 7 -60 20 -80 l20 -33 0 88 c0 80 -2 90 -25 112 l-24 25
-371 0 -371 0 -25 -25z"/>
<path d="M761 636 c-21 -22 -23 -31 -17 -83 4 -32 9 -66 12 -75 5 -16 -2 -18
-45 -18 -80 0 -91 -17 -91 -140 0 -89 -2 -101 -20 -112 -11 -7 -20 -21 -20
-30 0 -17 15 -18 185 -18 184 0 186 0 210 25 23 23 25 31 25 130 0 128 -11
145 -88 145 l-48 0 9 76 c9 71 8 76 -14 100 -29 31 -69 31 -98 0z m199 -344
c0 -40 -5 -73 -12 -80 -8 -8 -57 -12 -153 -12 l-140 0 3 80 4 80 149 0 149 0
0 -68z"/>
</g>
</svg>
