<?xml version="1.0" standalone="no"?>
<!DOCTYPE svg PUBLIC "-//W3C//DTD SVG 20010904//EN"
 "http://www.w3.org/TR/2001/REC-SVG-20010904/DTD/svg10.dtd">
<svg version="1.0" xmlns="http://www.w3.org/2000/svg"
 width="100.000000pt" height="100.000000pt" viewBox="0 0 100.000000 100.000000"
 preserveAspectRatio="xMidYMid meet">

<g transform="translate(0.000000,100.000000) scale(0.100000,-0.100000)"
fill="#000000" stroke="none">
<path d="M104 815 l-25 -25 3 -255 3 -255 -28 0 c-34 0 -43 -21 -27 -61 24
-56 40 -59 359 -59 276 0 292 -1 331 -21 82 -43 194 -8 237 74 25 48 21 113
-10 181 -26 56 -27 65 -27 228 0 166 0 169 -25 193 l-24 25 -371 0 -371 0 -25
-25z m760 -31 c13 -12 16 -40 16 -141 l0 -126 -35 47 c-20 25 -40 46 -45 46
-14 0 -97 -116 -131 -181 -15 -31 -33 -77 -40 -103 l-11 -46 -237 0 c-171 0
-240 3 -249 12 -9 9 -12 77 -12 244 0 198 2 235 16 248 13 14 60 16 364 16
304 0 351 -2 364 -16z m-82 -321 c-39 -55 -72 -133 -72 -168 0 -49 14 -71 57
-93 44 -23 30 -37 -15 -15 -62 30 -79 109 -42 190 27 60 83 139 88 125 2 -6
-5 -24 -16 -39z"/>
</g>
</svg>
