<?xml version="1.0" standalone="no"?>
<!DOCTYPE svg PUBLIC "-//W3C//DTD SVG 20010904//EN"
 "http://www.w3.org/TR/2001/REC-SVG-20010904/DTD/svg10.dtd">
<svg version="1.0" xmlns="http://www.w3.org/2000/svg"
 width="100.000000pt" height="100.000000pt" viewBox="0 0 100.000000 100.000000"
 preserveAspectRatio="xMidYMid meet">

<g transform="translate(0.000000,100.000000) scale(0.100000,-0.100000)"
fill="#000000" stroke="none">
<path d="M735 900 c-7 -40 -42 -80 -71 -80 -7 0 -37 -5 -66 -11 -50 -11 -108
-53 -108 -78 0 -19 31 -12 60 13 18 14 48 26 81 30 74 10 107 30 130 79 25 55
25 87 0 87 -15 0 -21 -10 -26 -40z"/>
<path d="M25 655 l-25 -24 0 -231 0 -231 25 -24 24 -25 451 0 451 0 24 25 25
24 0 231 0 231 -25 24 -24 25 -451 0 -451 0 -24 -25z m155 -135 l0 -40 -40 0
-40 0 0 40 0 40 40 0 40 0 0 -40z m120 0 l0 -40 -40 0 -40 0 0 40 0 40 40 0
40 0 0 -40z m120 0 l0 -40 -40 0 -40 0 0 40 0 40 40 0 40 0 0 -40z m120 0 l0
-40 -40 0 -40 0 0 40 0 40 40 0 40 0 0 -40z m120 0 l0 -40 -40 0 -40 0 0 40 0
40 40 0 40 0 0 -40z m120 0 l0 -40 -40 0 -40 0 0 40 0 40 40 0 40 0 0 -40z
m120 0 l0 -40 -40 0 -40 0 0 40 0 40 40 0 40 0 0 -40z m-660 -120 l0 -40 -70
0 -70 0 0 40 0 40 70 0 70 0 0 -40z m120 0 l0 -40 -40 0 -40 0 0 40 0 40 40 0
40 0 0 -40z m120 0 l0 -40 -40 0 -40 0 0 40 0 40 40 0 40 0 0 -40z m120 0 l0
-40 -40 0 -40 0 0 40 0 40 40 0 40 0 0 -40z m120 0 l0 -40 -40 0 -40 0 0 40 0
40 40 0 40 0 0 -40z m180 0 l0 -40 -70 0 -70 0 0 40 0 40 70 0 70 0 0 -40z
m-720 -120 l0 -40 -40 0 -40 0 0 40 0 40 40 0 40 0 0 -40z m120 0 l0 -40 -40
0 -40 0 0 40 0 40 40 0 40 0 0 -40z m360 0 l0 -40 -160 0 -160 0 0 40 0 40
160 0 160 0 0 -40z m120 0 l0 -40 -40 0 -40 0 0 40 0 40 40 0 40 0 0 -40z
m120 0 l0 -40 -40 0 -40 0 0 40 0 40 40 0 40 0 0 -40z"/>
</g>
</svg>
