<?xml version="1.0" standalone="no"?>
<!DOCTYPE svg PUBLIC "-//W3C//DTD SVG 20010904//EN"
 "http://www.w3.org/TR/2001/REC-SVG-20010904/DTD/svg10.dtd">
<svg version="1.0" xmlns="http://www.w3.org/2000/svg"
 width="52.000000pt" height="52.000000pt" viewBox="0 0 52.000000 52.000000"
 preserveAspectRatio="xMidYMid meet">

<g transform="translate(0.000000,52.000000) scale(0.100000,-0.100000)"
fill="#000000" stroke="none">
<path d="M86 507 c-14 -10 -27 -57 -52 -188 -19 -96 -34 -175 -34 -177 0 -1 9
2 19 8 12 6 108 10 241 10 133 0 229 -4 241 -10 10 -6 19 -9 19 -8 0 2 -15 81
-34 177 -25 131 -38 178 -52 188 -26 19 -322 19 -348 0z m269 -76 c17 -9 38
-33 48 -54 18 -36 18 -38 0 -74 -25 -51 -74 -78 -143 -78 -69 0 -118 27 -143
77 -16 33 -17 40 -3 71 32 79 153 107 241 58z"/>
<path d="M230 365 c-15 -18 2 -45 30 -45 28 0 45 27 30 45 -7 8 -20 15 -30 15
-10 0 -23 -7 -30 -15z"/>
<path d="M161 338 c-1 -17 7 -33 21 -42 34 -24 55 -19 24 5 -15 12 -32 31 -36
43 -8 19 -9 19 -9 -6z"/>
<path d="M20 120 c-26 -26 -26 -74 0 -100 19 -19 33 -20 240 -20 207 0 221 1
240 20 26 26 26 74 0 100 -19 19 -33 20 -240 20 -207 0 -221 -1 -240 -20z
m435 -50 c0 -18 -6 -26 -23 -28 -24 -4 -38 18 -28 44 3 9 15 14 28 12 17 -2
23 -10 23 -28z"/>
</g>
</svg>
